HIERARCHY
ROOT Hips
{
	OFFSET 0.00 0.00 0.00
	CHANNELS 6 Xposition Yposition Zposition Xrotation Yrotation Zrotation
	JOINT Spine
	{
		OFFSET 0.00000 0.84964 1.27446
		CHANNELS 3 Xrotation Yrotation Zrotation
		JOINT Spine1
		{
			OFFSET 0.00000 0.29508 1.67346
			CHANNELS 3 Xrotation Yrotation Zrotation
			JOINT Spine2
			{
				OFFSET 0.00000 0.14810 1.69281
				CHANNELS 3 Xrotation Yrotation Zrotation
				JOINT Spine3
				{
					OFFSET 0.00000 0.00000 1.69928
					CHANNELS 3 Xrotation Yrotation Zrotation
					JOINT Neck
					{
						OFFSET 0.00000 -0.63723 4.46061
						CHANNELS 3 Xrotation Yrotation Zrotation
						JOINT Head
						{
							OFFSET 0.00000 -0.40573 2.30101
							CHANNELS 3 Xrotation Yrotation Zrotation
							End Site
							{
								OFFSET 0.00000 0.00000 2.75071
							}
						}
					}
					JOINT RightShoulder
					{
						OFFSET -0.72014 -1.20022 3.88874
						CHANNELS 3 Xrotation Yrotation Zrotation
						JOINT RightArm
						{
							OFFSET -3.57668 0.00000 0.00000
							CHANNELS 3 Xrotation Yrotation Zrotation
							JOINT RightForeArm
							{
								OFFSET -5.92485 0.00000 0.00000
								CHANNELS 3 Xrotation Yrotation Zrotation
								JOINT RightHand
								{
									OFFSET -6.63013 0.00000 0.00000
									CHANNELS 3 Xrotation Yrotation Zrotation
									JOINT RightHandEnd
									{
										OFFSET -1.65321 0.00000 0.00000
										CHANNELS 3 Xrotation Yrotation Zrotation
										End Site
										{
											OFFSET -1.65321 0.00000 0.00000
										}
									}
									JOINT RightHandThumb1
									{
										OFFSET -0.66129 -1.10214 -0.44086
										CHANNELS 3 Yrotation Xrotation Zrotation
										End Site
										{
											OFFSET -1.59688 -0.42788 0.00000
										}
									}
								}
							}
						}
					}
					JOINT LeftShoulder
					{
						OFFSET 0.72014 -1.20022 3.88874
						CHANNELS 3 Xrotation Yrotation Zrotation
						JOINT LeftArm
						{
							OFFSET 3.57668 0.00000 0.00000
							CHANNELS 3 Xrotation Yrotation Zrotation
							JOINT LeftForeArm
							{
								OFFSET 5.92485 0.00000 0.00000
								CHANNELS 3 Xrotation Yrotation Zrotation
								JOINT LeftHand
								{
									OFFSET 6.63013 0.00000 0.00000
									CHANNELS 3 Xrotation Yrotation Zrotation
									JOINT LeftHandEnd
									{
										OFFSET 1.65321 0.00000 0.00000
										CHANNELS 3 Xrotation Yrotation Zrotation
										End Site
										{
											OFFSET 1.65321 0.00000 0.00000
										}
									}
									JOINT LeftHandThumb1
									{
										OFFSET 0.66129 -1.10214 -0.44086
										CHANNELS 3 Yrotation Xrotation Zrotation
										End Site
										{
											OFFSET 1.59688 -0.42788 0.00000
										}
									}
								}
							}
						}
					}
				}
			}
		}
	}
	JOINT RightUpLeg
	{
		OFFSET -2.13640 0.00000 -0.62412
		CHANNELS 3 Xrotation Yrotation Zrotation
		JOINT RightLeg
		{
			OFFSET 0.00000 0.00000 -11.49360
			CHANNELS 3 Xrotation Yrotation Zrotation
			JOINT RightFoot
			{
				OFFSET 0.00000 0.00000 -8.79036
				CHANNELS 3 Xrotation Yrotation Zrotation
				JOINT RightToeBase
				{
					OFFSET 0.00000 -3.94625 -1.43632
					CHANNELS 3 Xrotation Yrotation Zrotation
					End Site
					{
						OFFSET 0.00000 -1.72833 -0.00000
					}
				}
			}
		}
	}
	JOINT LeftUpLeg
	{
		OFFSET 2.13640 0.00000 -0.62412
		CHANNELS 3 Xrotation Yrotation Zrotation
		JOINT LeftLeg
		{
			OFFSET 0.00000 0.00000 -11.49360
			CHANNELS 3 Xrotation Yrotation Zrotation
			JOINT LeftFoot
			{
				OFFSET 0.00000 0.00000 -8.79036
				CHANNELS 3 Xrotation Yrotation Zrotation
				JOINT LeftToeBase
				{
					OFFSET 0.00000 -3.94625 -1.43632
					CHANNELS 3 Xrotation Yrotation Zrotation
					End Site
					{
						OFFSET 0.00000 -1.72833 -0.00000
					}
				}
			}
		}
	}
}
MOTION
Frames: 13
Frame Time: 0.00025
 0.4345 -1.8410 23.5940 0.9592 -1.1373 175.5041 -7.6150 -2.7119 0.3677 -2.1980 -2.0375 -0.2589 11.7128 1.9792 4.1510 1.1042 4.0620 -0.6019 -12.8628 4.1520 0.2446 6.8095 -2.9735 -3.1002 3.8550 -23.3811 3.5312 -4.9189 -53.0975 -2.5118 0.0000 0.0000 16.3169 -10.7350 -7.5134 4.4480 0.0000 0.0000 -0.0000 0.0000 -0.0000 -0.0000 -2.0567 28.0612 -3.1007 12.3641 49.1893 -6.6499 -0.0000 -0.0000 -21.1254 -6.1921 -12.7906 11.6379 0.0000 0.0000 0.0000 -0.0000 0.0000 0.0000 3.1179 2.8128 -46.1468 -3.2975 0.0000 -0.0000 19.3135 -12.9045 41.6930 -36.8955 0.0000 -0.0000 5.6622 -3.4365 18.6296 -6.7692 0.0000 -0.0000 -1.4881 -5.3305 -18.4727 -4.5680 0.0000 -0.0000
 0.4437 -1.8333 23.5941 0.9522 -1.1515 175.5547 -7.6344 -2.7290 0.3776 -2.2143 -2.0419 -0.2550 11.7439 2.0476 4.1837 1.1191 4.0765 -0.6095 -12.9304 4.1584 0.2125 6.6590 -3.0444 -3.1871 3.8391 -23.3678 3.5692 -4.7823 -53.1744 -2.3925 0.0000 0.0000 16.2695 -10.8148 -7.5674 4.4240 0.0000 -0.0000 -0.0000 0.0000 0.0000 -0.0000 -2.0909 28.0285 -3.1647 12.2207 49.1520 -6.5594 -0.0000 -0.0000 -21.1292 -6.2412 -12.8357 11.6727 0.0000 0.0000 0.0000 0.0000 -0.0000 0.0000 3.1774 2.7576 -46.1590 -3.3640 0.0000 -0.0000 19.3357 -12.9806 41.7069 -36.6746 0.0000 -0.0000 5.6705 -3.4764 18.6603 -6.7675 0.0000 -0.0000 -1.5110 -5.3146 -18.5474 -4.5691 0.0000 -0.0000
 0.4535 -1.8281 23.5934 0.9383 -1.1502 175.5746 -7.6407 -2.7250 0.4065 -2.2406 -2.0497 -0.2520 11.7663 2.1089 4.2049 1.1348 4.0917 -0.6174 -12.9742 4.1662 0.1948 6.4937 -3.1258 -3.2460 3.8234 -23.3366 3.6131 -4.5536 -53.2470 -2.1875 0.0000 0.0000 16.2304 -10.8358 -7.6407 4.4026 -0.0000 -0.0000 0.0000 -0.0000 -0.0000 0.0000 -2.1211 27.9884 -3.2301 12.1126 49.1226 -6.4883 -0.0000 -0.0000 -21.0904 -6.2893 -12.8642 11.7170 -0.0000 -0.0000 -0.0000 -0.0000 0.0000 0.0000 3.1855 2.6948 -46.1610 -3.4575 0.0000 -0.0000 19.3485 -12.8933 41.6012 -37.0051 0.0000 -0.0000 5.6699 -3.5001 18.7113 -6.7696 0.0000 -0.0000 -1.5228 -5.2964 -18.6128 -4.5730 0.0000 -0.0000
 0.4636 -1.8257 23.5923 0.8586 -1.1332 175.5610 -7.7160 -2.7119 0.4479 -2.2696 -2.0883 -0.2614 11.7949 2.2189 4.2274 1.1534 4.0941 -0.6254 -12.9978 4.1680 0.1921 6.3247 -3.2163 -3.2712 3.8115 -23.2989 3.6643 -4.3210 -53.3123 -1.9599 0.0000 0.0000 16.1864 -10.8211 -7.7323 4.3834 0.0000 0.0000 0.0000 -0.0000 -0.0000 0.0000 -2.1312 27.9525 -3.3041 12.0370 49.0782 -6.4440 -0.0000 -0.0000 -21.0164 -6.3139 -12.8764 11.7603 -0.0000 -0.0000 -0.0000 -0.0000 -0.0000 0.0000 3.0882 2.6289 -46.1454 -3.5635 0.0000 -0.0000 19.3517 -12.6861 41.4100 -37.7329 0.0000 -0.0000 5.5931 -3.5134 18.7893 -6.7603 0.0000 -0.0000 -1.5342 -5.2759 -18.6753 -4.5761 0.0000 -0.0000
 0.4738 -1.8242 23.5910 0.8013 -1.1102 175.5181 -7.7675 -2.7014 0.4899 -2.2983 -2.1069 -0.2636 11.8195 2.3038 4.2518 1.1700 4.1054 -0.6318 -12.9962 4.1682 0.2070 6.1706 -3.3048 -3.2581 3.8047 -23.2409 3.7135 -4.1091 -53.3830 -1.7421 0.0000 0.0000 16.1494 -10.8105 -7.8103 4.3614 -0.0000 0.0000 -0.0000 -0.0000 -0.0000 0.0000 -2.1332 27.9343 -3.3686 12.0320 49.0113 -6.4467 -0.0000 -0.0000 -20.9193 -6.3076 -12.8833 11.8052 0.0000 0.0000 0.0000 0.0000 0.0000 0.0000 3.0005 2.5700 -46.1151 -3.6684 0.0000 -0.0000 19.3501 -12.4507 41.2117 -38.5582 0.0000 -0.0000 5.5410 -3.5165 18.8898 -6.7507 0.0000 -0.0000 -1.5426 -5.2512 -18.7321 -4.5786 0.0000 -0.0000
 0.4839 -1.8230 23.5901 0.7678 -1.0939 175.4585 -7.8044 -2.7073 0.5189 -2.3190 -2.1038 -0.2576 11.8418 2.3625 4.2805 1.1866 4.1283 -0.6376 -12.9775 4.1661 0.2402 6.0496 -3.3861 -3.2073 3.8109 -23.1683 3.7663 -3.9115 -53.4601 -1.5428 0.0000 0.0000 16.1424 -10.8405 -7.8291 4.3412 0.0000 -0.0000 -0.0000 0.0000 -0.0000 0.0000 -2.1132 27.9270 -3.4294 12.0711 48.9330 -6.4863 -0.0000 -0.0000 -20.8049 -6.2744 -12.8914 11.8424 0.0000 0.0000 0.0000 -0.0000 0.0000 0.0000 2.9463 2.5162 -46.0942 -3.7595 0.0000 -0.0000 19.3563 -12.2686 41.0946 -39.1584 0.0000 -0.0000 5.5137 -3.5246 18.9918 -6.7359 0.0000 -0.0000 -1.5516 -5.2261 -18.7734 -4.5800 0.0000 -0.0000
 0.4939 -1.8223 23.5901 0.7600 -1.0902 175.3952 -7.8232 -2.7248 0.5278 -2.3290 -2.0922 -0.2490 11.8606 2.4056 4.3178 1.1998 4.1530 -0.6461 -12.9499 4.1659 0.2929 5.9788 -3.4511 -3.1239 3.8404 -23.0894 3.8223 -3.6838 -53.5311 -1.3278 0.0000 0.0000 16.1831 -10.9275 -7.7599 4.3240 0.0000 0.0000 0.0000 -0.0000 -0.0000 -0.0000 -2.0827 27.9359 -3.4801 12.1359 48.8491 -6.5370 -0.0000 -0.0000 -20.6857 -6.2332 -12.8984 11.8696 0.0000 -0.0000 -0.0000 -0.0000 0.0000 -0.0000 2.9377 2.4712 -46.0846 -3.8194 0.0000 -0.0000 19.3691 -12.1940 41.0931 -39.3271 0.0000 -0.0000 5.5066 -3.5455 19.0874 -6.7057 0.0000 -0.0000 -1.5648 -5.2043 -18.8035 -4.5823 0.0000 -0.0000
 0.5043 -1.8229 23.5907 0.7551 -1.1082 175.3381 -7.8448 -2.7633 0.5181 -2.3257 -2.0837 -0.2443 11.8731 2.4613 4.3544 1.2072 4.1664 -0.6509 -12.9164 4.1708 0.3599 5.9665 -3.5012 -3.0162 3.8761 -23.0163 3.8762 -3.4253 -53.5885 -1.1155 0.0000 0.0000 16.2775 -11.0456 -7.6114 4.3143 -0.0000 -0.0000 -0.0000 -0.0000 -0.0000 0.0000 -2.0406 27.9473 -3.5253 12.1944 48.7792 -6.5733 -0.0000 -0.0000 -20.5679 -6.2072 -12.9004 11.8837 0.0000 0.0000 0.0000 0.0000 -0.0000 -0.0000 2.9507 2.4225 -46.0973 -3.8466 0.0000 -0.0000 19.3915 -12.2219 41.2082 -39.0583 0.0000 -0.0000 5.4928 -3.5932 19.1651 -6.6580 0.0000 -0.0000 -1.5832 -5.1887 -18.8202 -4.5869 0.0000 -0.0000
 0.5151 -1.8250 23.5919 0.7616 -1.1402 175.2895 -7.8494 -2.8035 0.4968 -2.3137 -2.0730 -0.2395 11.8693 2.5041 4.3852 1.2093 4.1729 -0.6525 -12.8730 4.1869 0.4380 6.0145 -3.5346 -2.8937 3.9189 -22.9473 3.9270 -3.1621 -53.6287 -0.9162 0.0000 0.0000 16.4050 -11.1634 -7.4212 4.3141 0.0000 -0.0000 0.0000 0.0000 0.0000 0.0000 -1.9948 27.9502 -3.5625 12.2265 48.7477 -6.5751 -0.0000 -0.0000 -20.4534 -6.2098 -12.8954 11.8853 0.0000 0.0000 0.0000 0.0000 0.0000 0.0000 2.9832 2.3726 -46.1294 -3.8477 0.0000 -0.0000 19.4194 -12.3102 41.3967 -38.5311 0.0000 -0.0000 5.4816 -3.6589 19.2213 -6.5988 0.0000 -0.0000 -1.6010 -5.1796 -18.8222 -4.5964 0.0000 -0.0000
 0.5266 -1.8284 23.5931 0.7959 -1.1832 175.2445 -7.8115 -2.8392 0.4756 -2.2978 -2.0588 -0.2317 11.8406 2.5324 4.4044 1.2057 4.1688 -0.6493 -12.8091 4.2208 0.5236 6.1158 -3.5557 -2.7664 3.9577 -22.8761 3.9662 -2.9436 -53.6584 -0.7636 0.0000 0.0000 16.5364 -11.2503 -7.2373 4.3212 0.0000 0.0000 0.0000 0.0000 -0.0000 0.0000 -1.9441 27.9361 -3.5901 12.2385 48.7651 -6.5529 -0.0000 -0.0000 -20.3405 -6.2458 -12.8857 11.8840 -0.0000 -0.0000 0.0000 -0.0000 -0.0000 0.0000 3.0396 2.3158 -46.1653 -3.8376 0.0000 -0.0000 19.4469 -12.3988 41.5922 -37.9924 0.0000 -0.0000 5.4966 -3.7358 19.2674 -6.5411 0.0000 -0.0000 -1.6142 -5.1735 -18.8157 -4.6100 0.0000 -0.0000
 0.5382 -1.8336 23.5942 0.8182 -1.2133 175.2013 -7.7810 -2.8450 0.4631 -2.2865 -2.0478 -0.2303 11.8020 2.5329 4.4232 1.2043 4.1743 -0.6522 -12.7243 4.2676 0.6140 6.2593 -3.5703 -2.6406 3.9934 -22.8070 4.0007 -2.8159 -53.6790 -0.6783 0.0000 0.0000 16.6429 -11.3042 -7.0937 4.3326 0.0000 0.0000 0.0000 -0.0000 -0.0000 -0.0000 -1.9092 27.9023 -3.6049 12.2354 48.8307 -6.4959 -0.0000 -0.0000 -20.2329 -6.2916 -12.8732 11.8918 -0.0000 -0.0000 -0.0000 0.0000 -0.0000 0.0000 3.0632 2.2705 -46.2022 -3.8161 0.0000 -0.0000 19.4627 -12.4417 41.7478 -37.6338 0.0000 -0.0000 5.4903 -3.8019 19.3049 -6.4769 0.0000 -0.0000 -1.6236 -5.1711 -18.8040 -4.6263 0.0000 -0.0000
 0.5502 -1.8393 23.5950 0.8435 -1.2420 175.1529 -7.7513 -2.8474 0.4587 -2.2788 -2.0375 -0.2263 11.7586 2.5349 4.4357 1.2044 4.1749 -0.6526 -12.6115 4.3265 0.7024 6.4318 -3.5827 -2.5225 4.0151 -22.7386 4.0169 -2.7833 -53.7005 -0.6675 0.0000 0.0000 16.7174 -11.3382 -6.9971 4.3403 0.0000 -0.0000 -0.0000 -0.0000 -0.0000 0.0000 -1.8711 27.8560 -3.6073 12.2804 48.9139 -6.4806 -0.0000 -0.0000 -20.1246 -6.3345 -12.8709 11.9251 0.0000 -0.0000 -0.0000 0.0000 0.0000 0.0000 3.0727 2.2205 -46.2190 -3.7951 0.0000 -0.0000 19.4654 -12.4291 41.8374 -37.4949 0.0000 -0.0000 5.4920 -3.8651 19.3519 -6.4260 0.0000 -0.0000 -1.6275 -5.1671 -18.7964 -4.6424 0.0000 -0.0000
 0.5625 -1.8450 23.5956 0.8656 -1.2686 175.1035 -7.7403 -2.8507 0.4572 -2.2769 -2.0294 -0.2230 11.7249 2.5423 4.4498 1.2103 4.1795 -0.6541 -12.4751 4.3891 0.7847 6.6226 -3.5976 -2.4145 4.0311 -22.6744 4.0220 -2.8284 -53.7278 -0.7175 0.0000 0.0000 16.7664 -11.3811 -6.9281 4.3417 -0.0000 -0.0000 0.0000 -0.0000 -0.0000 0.0000 -1.8327 27.8066 -3.5971 12.4220 48.9847 -6.5484 -0.0000 -0.0000 -20.0163 -6.3437 -12.8872 11.9872 0.0000 -0.0000 -0.0000 0.0000 -0.0000 0.0000 3.0710 2.1706 -46.2170 -3.7705 0.0000 -0.0000 19.4553 -12.3938 41.8840 -37.4648 0.0000 -0.0000 5.4963 -3.9248 19.4070 -6.3881 0.0000 -0.0000 -1.6270 -5.1625 -18.7964 -4.6578 0.0000 -0.0000
